# xmcd CD database file generated by Grip 3.0.1
# 
# Track frame offsets:
#       150
#       20600
#       35885
#       57110
#       72172
#       91165
#       115030
#       128207
#       156557
#       172107
#       195765
#       211652
#       227367
#       242005
#       250277
#       257765
#       280067
#       297165
#       319737
# 
# Disc length: 4448 seconds
# 
# Revision: 0
# Processed by: cddbd v1.4PL0 Copyright (c) Steve Scherf et al.
# Submitted via: Grip 3.0.1
# 
DISCID=09115e13
DTITLE=Reba McEntire - Reba Live
DYEAR=1989
DGENRE=Country
TTITLE0=So, So, So Long
TTITLE1=One Promise Too Late
TTITLE2=Let The Music Lift You Up
TTITLE3=Little Rock
TTITLE4=New Fool At An Old Game
TTITLE5=Little Girl
TTITLE6=Can't Stop Now
TTITLE7=Sunday Knid Of Love
TTITLE8=I Know How He Feels
TTITLE9=Whoever's In New England
TTITLE10=Cathy's Clown
TTITLE11=You Must Really Love Me
TTITLE12=Somebody Up There Likes Me
TTITLE13=San Antonio Rose
TTITLE14=Mama Tried
TTITLE15=Night Life
TTITLE16=Jolene
TTITLE17=Sweet Dreams
TTITLE18=Respect
EXTD=
EXTT0=
EXTT1=
EXTT2=
EXTT3=
EXTT4=
EXTT5=
EXTT6=
EXTT7=
EXTT8=
EXTT9=
EXTT10=
EXTT11=
EXTT12=
EXTT13=
EXTT14=
EXTT15=
EXTT16=
EXTT17=
EXTT18=
PLAYORDER=
